# xmcd
#
# Track frame offsets:
#	150
#	19002
#	41165
#	63842
#	83147
#	101925
#	115317
#	128660
#	142195
#	157252
#	176122
#	191325
#	204045
#	227322
#	247212
#	265627
#	289707
#	307502
#
# Disc length: 4345 seconds
#
# Revision: 1
# Processed by: cddbd v1.5.1PL0 Copyright (c) Steve Scherf et al.
# Submitted via: CDex 1.50Beta5
#
DISCID=f510f712
DTITLE=ダイアナ・ロス - ハートフル・ウエディング
DYEAR=2000
DGENRE=
TTITLE0=ダイアナ・ロス/イフ・ウイ・ホールド・オン・トゥゲザー
TTITLE1=K-CI&JOJO/オール・マイ・ライフ
TTITLE2=エンジェル・グラント/アイ・ラブ・ユー
TTITLE3=ジョディ・ワトリー/エブリシング
TTITLE4=ジェッツ/ユー・ガット・イット・オール
TTITLE5=ママス・アンド・パパス/愛する君に
TTITLE6=ルイ・アームストロング/ムーン・リバー
TTITLE7=カーメン・キャバレロ/愛情物語
TTITLE8=オーリアンズ/ダンス・ウィズ・ミー
TTITLE9=ダン・ハートマン/あなたを夢見て
TTITLE10=トミー・ロー/クロース・トゥ・ユー
TTITLE11=ジュディ・ガーランド/虹の彼方に
TTITLE12=ペブルス/ラブ・メイクス・シングス・ハプン
TTITLE13=シャンテ・ムーア/アイ・シー・ユー・イン・ア・ディファレント・ライト
TTITLE14=オリビア・ニュートン・ジョン/愛の告白
TTITLE15=JODECI/フォーエバー・マイ・レディー
TTITLE16=パンドラ/ヘブン
TTITLE17=C.J.ルイス/ベスト・オブ・マイ・ラブ
EXTD=
EXTT0=
EXTT1=
EXTT2=
EXTT3=
EXTT4=
EXTT5=
EXTT6=
EXTT7=
EXTT8=
EXTT9=
EXTT10=
EXTT11=
EXTT12=
EXTT13=
EXTT14=
EXTT15=
EXTT16=
EXTT17=
PLAYORDER=
